<svg width="249" height="23" viewBox="0 0 249 23" fill="none" xmlns="http://www.w3.org/2000/svg">
<path d="M10.956 22.56C9.03333 22.56 7.38133 22.2427 6 21.608C4.61867 20.9547 3.48933 20.1053 2.612 19.06C1.73467 18.0147 1.09067 16.876 0.68 15.644C0.269333 14.412 0.0640001 13.208 0.0640001 12.032V11.416C0.0640001 10.1467 0.278667 8.896 0.708 7.664C1.13733 6.41333 1.78133 5.284 2.64 4.276C3.51733 3.268 4.60933 2.46533 5.916 1.868C7.22267 1.252 8.75333 0.943999 10.508 0.943999C12.3933 0.943999 14.0547 1.28933 15.492 1.98C16.948 2.67067 18.1147 3.632 18.992 4.864C19.8693 6.07733 20.3827 7.48667 20.532 9.092H15.324C15.212 8.476 14.9413 7.92533 14.512 7.44C14.0827 6.936 13.5227 6.544 12.832 6.264C12.16 5.96533 11.3853 5.816 10.508 5.816C9.668 5.816 8.92133 5.96533 8.268 6.264C7.63333 6.544 7.092 6.95467 6.644 7.496C6.21467 8.01867 5.888 8.644 5.664 9.372C5.44 10.1 5.328 10.8933 5.328 11.752C5.328 12.6107 5.44933 13.4133 5.692 14.16C5.93467 14.888 6.28933 15.532 6.756 16.092C7.22267 16.6333 7.81067 17.0533 8.52 17.352C9.22933 17.6507 10.0413 17.8 10.956 17.8C12.1133 17.8 13.112 17.5573 13.952 17.072C14.792 16.5867 15.38 15.9427 15.716 15.14L15.324 18.22V13.768H20.084V17.968C19.2253 19.4427 18.0027 20.5813 16.416 21.384C14.848 22.168 13.028 22.56 10.956 22.56ZM10.396 14.776V11.136H21.764V14.776H10.396ZM24.3962 22V1.392H29.6042V22H24.3962ZM36.7162 22L30.9762 13.32H36.6322L42.7082 22H36.7162ZM28.2882 15.728V11.724H33.1882C33.8042 11.724 34.3362 11.6027 34.7842 11.36C35.2322 11.1173 35.5776 10.772 35.8202 10.324C36.0816 9.876 36.2122 9.35333 36.2122 8.756C36.2122 8.14 36.0816 7.608 35.8202 7.16C35.5776 6.712 35.2322 6.36667 34.7842 6.124C34.3362 5.88133 33.8042 5.76 33.1882 5.76H28.2882V1.392H32.8802C34.6536 1.392 36.1842 1.66267 37.4722 2.204C38.7602 2.72667 39.7496 3.51067 40.4402 4.556C41.1309 5.58267 41.4762 6.86133 41.4762 8.392V8.84C41.4762 10.3707 41.1216 11.6493 40.4122 12.676C39.7216 13.684 38.7322 14.4493 37.4442 14.972C36.1749 15.476 34.6536 15.728 32.8802 15.728H28.2882ZM54.928 22.56C53.0614 22.56 51.4374 22.2427 50.056 21.608C48.6747 20.9547 47.5267 20.1053 46.612 19.06C45.6974 17.996 45.016 16.848 44.568 15.616C44.12 14.384 43.896 13.1893 43.896 12.032V11.416C43.896 10.128 44.1294 8.868 44.596 7.636C45.0627 6.38533 45.7627 5.256 46.696 4.248C47.6294 3.24 48.7774 2.43733 50.14 1.84C51.5214 1.24267 53.1174 0.943999 54.928 0.943999C56.72 0.943999 58.2974 1.24267 59.66 1.84C61.0414 2.43733 62.1987 3.24 63.132 4.248C64.0654 5.256 64.7654 6.38533 65.232 7.636C65.7174 8.868 65.96 10.128 65.96 11.416V12.032C65.96 13.1893 65.7267 14.384 65.26 15.616C64.812 16.848 64.1307 17.996 63.216 19.06C62.3014 20.1053 61.1534 20.9547 59.772 21.608C58.3907 22.2427 56.776 22.56 54.928 22.56ZM54.928 17.688C55.824 17.688 56.6267 17.5387 57.336 17.24C58.0454 16.9413 58.652 16.5213 59.156 15.98C59.66 15.4387 60.0427 14.8133 60.304 14.104C60.5654 13.376 60.696 12.592 60.696 11.752C60.696 10.856 60.556 10.044 60.276 9.316C60.0147 8.588 59.632 7.96267 59.128 7.44C58.624 6.91733 58.0174 6.516 57.308 6.236C56.5987 5.956 55.8054 5.816 54.928 5.816C54.032 5.816 53.2294 5.956 52.52 6.236C51.8107 6.516 51.204 6.91733 50.7 7.44C50.196 7.96267 49.8134 8.588 49.552 9.316C49.2907 10.044 49.16 10.856 49.16 11.752C49.16 12.592 49.2907 13.376 49.552 14.104C49.8134 14.8133 50.196 15.4387 50.7 15.98C51.204 16.5213 51.8107 16.9413 52.52 17.24C53.2294 17.5387 54.032 17.688 54.928 17.688ZM79.1273 22.56C77.2606 22.56 75.6366 22.2427 74.2553 21.608C72.8739 20.9547 71.7259 20.1053 70.8113 19.06C69.8966 17.996 69.2153 16.848 68.7673 15.616C68.3193 14.384 68.0953 13.1893 68.0953 12.032V11.416C68.0953 10.128 68.3286 8.868 68.7953 7.636C69.2619 6.38533 69.9619 5.256 70.8953 4.248C71.8286 3.24 72.9766 2.43733 74.3393 1.84C75.7206 1.24267 77.3166 0.943999 79.1273 0.943999C80.9193 0.943999 82.4966 1.24267 83.8593 1.84C85.2406 2.43733 86.3979 3.24 87.3313 4.248C88.2646 5.256 88.9646 6.38533 89.4313 7.636C89.9166 8.868 90.1593 10.128 90.1593 11.416V12.032C90.1593 13.1893 89.9259 14.384 89.4593 15.616C89.0113 16.848 88.3299 17.996 87.4153 19.06C86.5006 20.1053 85.3526 20.9547 83.9713 21.608C82.5899 22.2427 80.9753 22.56 79.1273 22.56ZM79.1273 17.688C80.0233 17.688 80.8259 17.5387 81.5353 17.24C82.2446 16.9413 82.8513 16.5213 83.3553 15.98C83.8593 15.4387 84.2419 14.8133 84.5033 14.104C84.7646 13.376 84.8953 12.592 84.8953 11.752C84.8953 10.856 84.7553 10.044 84.4753 9.316C84.2139 8.588 83.8313 7.96267 83.3273 7.44C82.8233 6.91733 82.2166 6.516 81.5073 6.236C80.7979 5.956 80.0046 5.816 79.1273 5.816C78.2313 5.816 77.4286 5.956 76.7193 6.236C76.0099 6.516 75.4033 6.91733 74.8993 7.44C74.3953 7.96267 74.0126 8.588 73.7513 9.316C73.4899 10.044 73.3593 10.856 73.3593 11.752C73.3593 12.592 73.4899 13.376 73.7513 14.104C74.0126 14.8133 74.3953 15.4387 74.8993 15.98C75.4033 16.5213 76.0099 16.9413 76.7193 17.24C77.4286 17.5387 78.2313 17.688 79.1273 17.688ZM97.3437 22L91.4077 1.56H96.7837L101.236 18.332L100.256 17.856H102.944L101.936 18.332L106.08 1.56H111.288L105.744 22H97.3437ZM113.92 22V1.56H118.96V22H113.92ZM118.4 22V17.744H127.024V22H118.4ZM118.4 13.74V9.484H126.436V13.74H118.4ZM118.4 5.816V1.56H126.856V5.816H118.4ZM130.49 22V1.56H139.03L145.834 17.856H146.814L146.254 18.36V1.56H151.126V22H142.53L135.726 5.704H134.746L135.306 5.2V22H130.49ZM165.287 22.56C163.421 22.56 161.797 22.2427 160.415 21.608C159.034 20.9547 157.886 20.1053 156.971 19.06C156.057 17.996 155.375 16.848 154.927 15.616C154.479 14.384 154.255 13.1893 154.255 12.032V11.416C154.255 10.128 154.489 8.868 154.955 7.636C155.422 6.38533 156.122 5.256 157.055 4.248C157.989 3.24 159.137 2.43733 160.499 1.84C161.881 1.24267 163.477 0.943999 165.287 0.943999C167.079 0.943999 168.657 1.24267 170.019 1.84C171.401 2.43733 172.558 3.24 173.491 4.248C174.425 5.256 175.125 6.38533 175.591 7.636C176.077 8.868 176.319 10.128 176.319 11.416V12.032C176.319 13.1893 176.086 14.384 175.619 15.616C175.171 16.848 174.49 17.996 173.575 19.06C172.661 20.1053 171.513 20.9547 170.131 21.608C168.75 22.2427 167.135 22.56 165.287 22.56ZM165.287 17.688C166.183 17.688 166.986 17.5387 167.695 17.24C168.405 16.9413 169.011 16.5213 169.515 15.98C170.019 15.4387 170.402 14.8133 170.663 14.104C170.925 13.376 171.055 12.592 171.055 11.752C171.055 10.856 170.915 10.044 170.635 9.316C170.374 8.588 169.991 7.96267 169.487 7.44C168.983 6.91733 168.377 6.516 167.667 6.236C166.958 5.956 166.165 5.816 165.287 5.816C164.391 5.816 163.589 5.956 162.879 6.236C162.17 6.516 161.563 6.91733 161.059 7.44C160.555 7.96267 160.173 8.588 159.911 9.316C159.65 10.044 159.519 10.856 159.519 11.752C159.519 12.592 159.65 13.376 159.911 14.104C160.173 14.8133 160.555 15.4387 161.059 15.98C161.563 16.5213 162.17 16.9413 162.879 17.24C163.589 17.5387 164.391 17.688 165.287 17.688ZM179.463 22V1.56H186.687L190.887 12.34H191.447L195.619 1.56H202.983V22H197.831V4.556L198.643 4.612L193.379 17.884H188.647L183.355 4.612L184.223 4.556V22H179.463ZM205.287 22L211.839 1.56H220.183L226.959 22H221.583L216.319 5.2L217.803 5.76H214.107L215.619 5.2L210.495 22H205.287ZM210.635 17.268L212.203 13.012H219.959L221.526 17.268H210.635ZM233.904 22.112V17.24H237.264C238.141 17.24 238.925 17.1187 239.616 16.876C240.325 16.6147 240.922 16.2507 241.408 15.784C241.893 15.2987 242.266 14.72 242.528 14.048C242.789 13.3573 242.92 12.5827 242.92 11.724C242.92 10.828 242.789 10.044 242.528 9.372C242.266 8.68133 241.893 8.112 241.408 7.664C240.922 7.19733 240.325 6.852 239.616 6.628C238.925 6.38533 238.141 6.264 237.264 6.264H233.904V1.392H237.04C238.888 1.392 240.502 1.65333 241.884 2.176C243.284 2.69867 244.45 3.42667 245.384 4.36C246.317 5.27467 247.017 6.33867 247.484 7.552C247.95 8.76533 248.184 10.0533 248.184 11.416V12.032C248.184 13.2827 247.95 14.5147 247.484 15.728C247.017 16.9227 246.317 18.0053 245.384 18.976C244.45 19.928 243.284 20.6933 241.884 21.272C240.502 21.832 238.888 22.112 237.04 22.112H233.904ZM229.256 22.112V1.392H234.464V22.112H229.256Z" fill="#0D3242"/>
</svg>
